# xmcd
#
# Track frame offsets:
#	150
#	13682
#	39573
#	67315
#	80632
#
# Disc length: 1249 seconds
#
# Revision: 0
# Processed by: cddbd v1.5.1PL2 Copyright (c) Steve Scherf et al.
# Submitted via: dBpowerAMP V4.0
#
DISCID=4004df05
DTITLE=Tilo Lutz - Ansichtssache
DYEAR=1900
DGENRE=
TTITLE0=Wahre Schönheit
TTITLE1=Der Krug geht um
TTITLE2=Leb' Dein Leben
TTITLE3=Uschi
TTITLE4=Scheiße passiert
EXTD=
EXTT0=
EXTT1=
EXTT2=
EXTT3=
EXTT4=
PLAYORDER=
